<svg width="264" height="172" viewBox="0 0 264 172" fill="none" xmlns="http://www.w3.org/2000/svg">
<g filter="url(#filter0_d_6271_133918)">
<rect x="12" y="9" width="240" height="147.917" rx="16" fill="#1D53FF" shape-rendering="crispEdges"/>
<g clip-path="url(#clip0_6271_133918)">
<path d="M33.089 17.3862H18.3828V23.9584C18.3828 27.5882 21.3279 30.5306 24.961 30.5306C26.5031 30.5306 27.9216 29.9977 29.0424 29.1057L29.0926 29.183C30.198 30.0286 31.5855 30.5306 33.0851 30.5306C36.7182 30.5306 39.6633 27.5882 39.6633 23.9584C39.6633 20.3287 36.7182 17.3862 33.0851 17.3862H33.089Z" fill="white"/>
<path d="M35.9014 20.1469C35.4338 20.1469 34.997 20.3246 34.6144 20.6296C34.9275 20.8729 35.1362 21.2474 35.1362 21.6761C35.1362 22.4097 34.541 23.0044 33.8066 23.0044C33.6482 23.0044 33.5013 22.9735 33.3583 22.9233C33.2926 23.2515 33.2578 23.5991 33.2578 23.9582C33.2578 26.0627 34.4405 27.7733 35.9014 27.7733C37.3624 27.7733 38.5451 26.0665 38.5451 23.9582C38.5451 21.8498 37.3624 20.1431 35.9014 20.1431V20.1469Z" fill="#232320"/>
<path d="M33.0927 17H18V23.9583C18 27.7966 21.1229 30.9167 24.9647 30.9167C26.4797 30.9167 27.8789 30.4263 29.0229 29.6038C30.2133 30.461 31.6124 30.9167 33.0888 30.9167C36.9306 30.9167 40.0535 27.7966 40.0535 23.9583C40.0535 20.1201 36.9306 17 33.0888 17H33.0927ZM18.773 23.9622V17.7762H24.9647C28.3774 17.7762 31.1563 20.5525 31.1563 23.9622C31.1563 27.3719 28.3774 30.1482 24.9647 30.1482C21.5519 30.1482 18.773 27.3719 18.773 23.9622ZM33.0927 30.1482C31.8482 30.1482 30.6694 29.7853 29.649 29.0979C31.0481 27.8236 31.9332 25.9972 31.9332 23.9583C31.9332 21.263 30.3911 18.9269 28.1417 17.7723H33.0927C36.5055 17.7723 39.2844 20.5487 39.2844 23.9583C39.2844 27.368 36.5055 30.1444 33.0927 30.1444V30.1482Z" fill="#232320"/>
<path d="M27.7764 20.1469C27.3088 20.1469 26.872 20.3246 26.4894 20.6296C26.8025 20.8729 27.0112 21.2474 27.0112 21.6761C27.0112 22.4097 26.416 23.0044 25.6816 23.0044C25.5232 23.0044 25.3763 22.9735 25.2333 22.9233C25.1676 23.2515 25.1328 23.5991 25.1328 23.9582C25.1328 26.0627 26.3155 27.7733 27.7764 27.7733C29.2374 27.7733 30.4201 26.0665 30.4201 23.9582C30.4201 21.8498 29.2374 20.1431 27.7764 20.1431V20.1469Z" fill="#232320"/>
<path d="M45.8441 17.6597L43.5391 30.6614H46.7715L47.6149 25.8649H52.1754L52.6868 23.0205H48.1263L48.5499 20.5956H53.1294L53.6523 17.6597H45.8441Z" fill="white"/>
<path d="M56.3496 20.3019C56.8152 20.3019 57.2273 20.1189 57.5708 19.7605C57.9181 19.4021 58.0936 19.0056 58.0936 18.5785C58.0936 18.1515 57.9448 17.7778 57.6471 17.469C57.3494 17.1563 56.9754 17 56.5328 17C56.071 17 55.655 17.1754 55.3039 17.5224C54.949 17.8693 54.7734 18.2811 54.7734 18.7425C54.7734 19.1695 54.9261 19.5394 55.2199 19.8444C55.5176 20.1494 55.8992 20.3019 56.3496 20.3019Z" fill="white"/>
<path d="M54.3939 21.1519L52.7109 30.6611H55.909L57.592 21.1519H54.3939Z" fill="white"/>
<path d="M66.6886 21.6552C66.1849 21.1519 65.4216 20.8965 64.4217 20.8965C63.4219 20.8965 62.5594 21.2587 61.7656 21.9793L61.5824 21.1519H58.9721L57.2891 30.6573H60.4871L61.3801 25.6549C61.5824 24.4653 62.132 23.8857 63.0631 23.8857C63.7768 23.8857 64.1203 24.2556 64.1203 25.0182C64.1203 25.1974 64.1012 25.4071 64.0668 25.6435L63.1853 30.6612H66.3833L67.2954 25.5138C67.3946 24.9267 67.4443 24.4081 67.4443 23.9811C67.4443 22.9478 67.1886 22.1662 66.6848 21.6629L66.6886 21.6552Z" fill="white"/>
<path d="M76.8162 17.6597L76.0529 21.8538C75.8774 21.6441 75.6179 21.442 75.282 21.259C74.847 21.0188 74.3241 20.9006 73.725 20.9006C72.7098 20.9006 71.7672 21.1751 70.9238 21.7203C70.0842 22.2656 69.4125 22.9938 68.924 23.886C68.4356 24.782 68.1875 25.7429 68.1875 26.7418C68.1875 27.5616 68.3707 28.2975 68.7294 28.9304C69.092 29.5672 69.5843 30.059 70.1949 30.4022C70.8055 30.7453 71.481 30.9169 72.2023 30.9169C73.2098 30.9169 74.1104 30.5509 74.8813 29.8341L75.095 30.6614H77.7054L80.0104 17.6597H76.8124H76.8162ZM74.2516 27.6493C73.8967 27.8933 73.4922 28.0153 73.0495 28.0153C72.5763 28.0153 72.1832 27.8628 71.8817 27.5578C71.5764 27.2566 71.4237 26.8486 71.4237 26.3529C71.4237 25.884 71.5382 25.4531 71.7672 25.0642C71.9962 24.6753 72.3015 24.3626 72.6717 24.1377C73.038 23.9089 73.4273 23.7945 73.8204 23.7945C74.2821 23.7945 74.66 23.9432 74.95 24.2406C75.2439 24.538 75.3889 24.9422 75.3889 25.4379C75.3889 25.8611 75.2858 26.2767 75.0874 26.677C74.8889 27.0736 74.6065 27.4015 74.2478 27.6493H74.2516Z" fill="white"/>
<path d="M85.7076 27.2488L85.6694 27.3136C85.532 27.5424 85.303 27.7673 84.9939 27.9808C84.6886 28.1867 84.2955 28.2935 83.8299 28.2935C83.3338 28.2935 82.9293 28.1524 82.6316 27.8703C82.3378 27.5919 82.1851 27.2755 82.166 26.9094H88.5965L88.7759 25.899C88.8369 25.5787 88.8713 25.2013 88.8713 24.7819C88.8713 23.6266 88.5278 22.681 87.8447 21.9718C87.1616 21.2588 86.2075 20.9004 85.0015 20.9004C83.9024 20.9004 82.8988 21.194 82.0286 21.7773C81.1585 22.3569 80.4716 23.1157 79.9907 24.0269C79.5099 24.9382 79.2656 25.8914 79.2656 26.8522C79.2656 27.672 79.4564 28.3964 79.8381 29.0065C80.2197 29.6165 80.7349 30.0931 81.376 30.421C82.0172 30.749 82.7308 30.9167 83.4979 30.9167C84.6123 30.9167 85.5587 30.6727 86.3144 30.1885C87.0318 29.7309 87.6272 29.0751 88.1004 28.2515L85.7076 27.2488ZM83.3186 23.8668C83.6887 23.577 84.1581 23.4283 84.7077 23.4283C85.2572 23.4283 85.6312 23.577 85.8488 23.8668C86.0739 24.1642 86.1884 24.473 86.1884 24.778C86.1884 24.7971 86.1884 24.8162 86.1884 24.8276H82.5629C82.7308 24.4501 82.9865 24.1261 83.3224 23.863L83.3186 23.8668Z" fill="white"/>
<path d="M97.1637 21.335C96.7706 21.0414 96.263 20.8965 95.66 20.8965C95.1334 20.8965 94.6602 21.0223 94.2556 21.2663C93.916 21.4722 93.6221 21.7201 93.3779 21.9946L93.1489 21.1519H90.5424L88.8594 30.6573H92.0574L92.9505 25.6549C93.0573 25.0563 93.2748 24.6064 93.5992 24.3204C93.9198 24.0344 94.3129 23.8857 94.7632 23.8857C95.1296 23.8857 95.4234 23.9696 95.6371 24.1412L95.7287 24.2137L97.2324 21.3883L97.1675 21.3388L97.1637 21.335Z" fill="white"/>
</g>
<path d="M147.22 43.8564H92.1797V68.9161C92.1797 82.7564 103.202 93.9758 116.8 93.9758C122.571 93.9758 127.88 91.9439 132.075 88.5428L132.263 88.8372C136.4 92.0617 141.593 93.9758 147.206 93.9758C160.803 93.9758 171.826 82.7564 171.826 68.9161C171.826 55.0759 160.803 43.8564 147.206 43.8564H147.22Z" fill="white"/>
<path d="M157.738 54.3839C155.988 54.3839 154.353 55.0612 152.921 56.2243C154.093 57.1519 154.874 58.5801 154.874 60.2144C154.874 63.0119 152.646 65.2794 149.898 65.2794C149.305 65.2794 148.755 65.1616 148.22 64.9702C147.974 66.2217 147.844 67.5468 147.844 68.9161C147.844 76.9405 152.27 83.4631 157.738 83.4631C163.206 83.4631 167.632 76.9552 167.632 68.9161C167.632 60.877 163.206 54.3691 157.738 54.3691V54.3839Z" fill="#232320"/>
<path d="M147.214 42.3843H90.7266V68.9163C90.7266 83.5516 102.415 95.4484 116.793 95.4484C122.464 95.4484 127.7 93.5785 131.982 90.4423C136.437 93.711 141.674 95.4484 147.199 95.4484C161.578 95.4484 173.266 83.5516 173.266 68.9163C173.266 54.281 161.578 42.3843 147.199 42.3843H147.214ZM93.6196 68.931V45.3437H116.793C129.566 45.3437 139.967 55.93 139.967 68.931C139.967 81.932 129.566 92.5184 116.793 92.5184C104.02 92.5184 93.6196 81.932 93.6196 68.931ZM147.214 92.5184C142.556 92.5184 138.144 91.1343 134.325 88.5135C139.562 83.6547 142.874 76.6904 142.874 68.9163C142.874 58.6392 137.103 49.7314 128.684 45.329H147.214C159.987 45.329 170.387 55.9153 170.387 68.9163C170.387 81.9173 159.987 92.5036 147.214 92.5036V92.5184Z" fill="#232320"/>
<path d="M127.308 54.3839C125.558 54.3839 123.923 55.0612 122.491 56.2243C123.663 57.1519 124.444 58.5801 124.444 60.2144C124.444 63.0119 122.217 65.2794 119.468 65.2794C118.875 65.2794 118.325 65.1616 117.79 64.9702C117.544 66.2217 117.414 67.5468 117.414 68.9161C117.414 76.9405 121.84 83.4631 127.308 83.4631C132.776 83.4631 137.203 76.9552 137.203 68.9161C137.203 60.877 132.776 54.3691 127.308 54.3691V54.3839Z" fill="#232320"/>
<path d="M42.748 132.705C42.748 134.851 42.0733 136.737 40.724 138.363C39.3747 139.957 37.5653 141.077 35.296 141.721L35.296 145.217L27.66 145.217L27.66 141.859C25.5133 141.337 23.7193 140.341 22.278 138.869C20.8367 137.366 19.8707 135.511 19.38 133.303L26.648 131.233C27.1387 132.827 27.6907 133.916 28.304 134.499C28.948 135.081 29.914 135.373 31.202 135.373C32.4287 135.373 33.3793 135.143 34.054 134.683C34.7287 134.223 35.066 133.563 35.066 132.705C35.066 132.03 34.7593 131.509 34.146 131.141C33.5633 130.773 32.5053 130.466 30.972 130.221C27.292 129.546 24.5627 128.442 22.784 126.909C21.0053 125.345 20.116 123.259 20.116 120.653C20.116 118.445 20.7907 116.543 22.14 114.949C23.52 113.323 25.36 112.219 27.66 111.637L27.66 108.417L35.296 108.417L35.296 111.821C37.1053 112.434 38.608 113.431 39.804 114.811C41 116.16 41.7973 117.831 42.196 119.825L34.928 121.895C34.56 120.484 34.1153 119.518 33.594 118.997C33.0727 118.445 32.2907 118.169 31.248 118.169C30.0827 118.169 29.2087 118.368 28.626 118.767C28.074 119.165 27.798 119.794 27.798 120.653C27.798 121.143 28.12 121.557 28.764 121.895C29.408 122.201 30.5887 122.539 32.306 122.907C35.894 123.643 38.5313 124.808 40.218 126.403C41.9047 127.967 42.748 130.067 42.748 132.705ZM68.8925 132.705C68.8925 134.851 68.2179 136.737 66.8685 138.363C65.5192 139.957 63.7099 141.077 61.4405 141.721L61.4405 145.217L53.8045 145.217L53.8045 141.859C51.6579 141.337 49.8639 140.341 48.4225 138.869C46.9812 137.366 46.0152 135.511 45.5245 133.303L52.7925 131.233C53.2832 132.827 53.8352 133.916 54.4485 134.499C55.0925 135.081 56.0585 135.373 57.3465 135.373C58.5732 135.373 59.5239 135.143 60.1985 134.683C60.8732 134.223 61.2105 133.563 61.2105 132.705C61.2105 132.03 60.9039 131.509 60.2905 131.141C59.7079 130.773 58.6499 130.466 57.1165 130.221C53.4365 129.546 50.7072 128.442 48.9285 126.909C47.1499 125.345 46.2605 123.259 46.2605 120.653C46.2605 118.445 46.9352 116.543 48.2845 114.949C49.6645 113.323 51.5045 112.219 53.8045 111.637L53.8045 108.417L61.4405 108.417L61.4405 111.821C63.2499 112.434 64.7525 113.431 65.9485 114.811C67.1445 116.16 67.9419 117.831 68.3405 119.825L61.0725 121.895C60.7045 120.484 60.2599 119.518 59.7385 118.997C59.2172 118.445 58.4352 118.169 57.3925 118.169C56.2272 118.169 55.3532 118.368 54.7705 118.767C54.2185 119.165 53.9425 119.794 53.9425 120.653C53.9425 121.143 54.2645 121.557 54.9085 121.895C55.5525 122.201 56.7332 122.539 58.4505 122.907C62.0385 123.643 64.6759 124.808 66.3625 126.403C68.0492 127.967 68.8925 130.067 68.8925 132.705ZM95.0371 132.705C95.0371 134.851 94.3624 136.737 93.0131 138.363C91.6637 139.957 89.8544 141.077 87.5851 141.721L87.5851 145.217L79.9491 145.217L79.9491 141.859C77.8024 141.337 76.0084 140.341 74.5671 138.869C73.1257 137.366 72.1597 135.511 71.6691 133.303L78.9371 131.233C79.4277 132.827 79.9797 133.916 80.5931 134.499C81.2371 135.081 82.2031 135.373 83.4911 135.373C84.7177 135.373 85.6684 135.143 86.3431 134.683C87.0177 134.223 87.3551 133.563 87.3551 132.705C87.3551 132.03 87.0484 131.509 86.4351 131.141C85.8524 130.773 84.7944 130.466 83.2611 130.221C79.5811 129.546 76.8517 128.442 75.0731 126.909C73.2944 125.345 72.4051 123.259 72.4051 120.653C72.4051 118.445 73.0797 116.543 74.4291 114.949C75.8091 113.323 77.6491 112.219 79.9491 111.637L79.9491 108.417L87.5851 108.417L87.5851 111.821C89.3944 112.434 90.8971 113.431 92.0931 114.811C93.2891 116.16 94.0864 117.831 94.4851 119.825L87.2171 121.895C86.8491 120.484 86.4044 119.518 85.8831 118.997C85.3617 118.445 84.5797 118.169 83.5371 118.169C82.3717 118.169 81.4977 118.368 80.9151 118.767C80.3631 119.165 80.0871 119.794 80.0871 120.653C80.0871 121.143 80.4091 121.557 81.0531 121.895C81.6971 122.201 82.8777 122.539 84.5951 122.907C88.1831 123.643 90.8204 124.808 92.5071 126.403C94.1937 127.967 95.0371 130.067 95.0371 132.705Z" fill="white"/>
<g clip-path="url(#clip1_6271_133918)">
<path d="M196.696 143.513H189.648L194.057 116.408H201.104L196.696 143.513Z" fill="white"/>
<path d="M222.242 117.07C220.852 116.522 218.648 115.917 215.921 115.917C208.962 115.917 204.061 119.607 204.031 124.884C203.973 128.777 207.539 130.939 210.207 132.237C212.934 133.563 213.861 134.429 213.861 135.612C213.833 137.427 211.657 138.264 209.628 138.264C206.815 138.264 205.307 137.833 203.016 136.823L202.088 136.39L201.102 142.474C202.754 143.223 205.8 143.887 208.962 143.917C216.356 143.917 221.171 140.283 221.228 134.66C221.256 131.574 219.372 129.21 215.312 127.278C212.847 126.038 211.337 125.202 211.337 123.933C211.366 122.779 212.614 121.598 215.397 121.598C217.688 121.54 219.371 122.088 220.647 122.636L221.284 122.923L222.242 117.07Z" fill="white"/>
<path d="M231.615 133.911C232.195 132.354 234.428 126.327 234.428 126.327C234.399 126.385 235.008 124.741 235.356 123.732L235.848 126.068C235.848 126.068 237.183 132.556 237.473 133.911C236.371 133.911 233.007 133.911 231.615 133.911ZM240.314 116.408H234.863C233.182 116.408 231.905 116.898 231.179 118.657L220.711 143.513H228.106C228.106 143.513 229.323 140.167 229.585 139.447C230.396 139.447 237.59 139.447 238.633 139.447C238.836 140.398 239.474 143.513 239.474 143.513H246L240.314 116.408Z" fill="white"/>
<path d="M172.688 143.484L166.406 119.932C164.239 118.672 161.765 117.659 159 116.956L159.116 116.408H170.455C171.992 116.465 173.239 116.955 173.645 118.687L176.11 131.143L176.864 134.891L183.766 116.408H191.218L180.141 143.484H172.688Z" fill="white"/>
</g>
</g>
<defs>
<filter id="filter0_d_6271_133918" x="0.207979" y="0.155984" width="263.584" height="171.501" filterUnits="userSpaceOnUse" color-interpolation-filters="sRGB">
<feFlood flood-opacity="0" result="BackgroundImageFix"/>
<feColorMatrix in="SourceAlpha" type="matrix" values="0 0 0 0 0 0 0 0 0 0 0 0 0 0 0 0 0 0 127 0" result="hardAlpha"/>
<feOffset dy="2.94801"/>
<feGaussianBlur stdDeviation="5.89601"/>
<feComposite in2="hardAlpha" operator="out"/>
<feColorMatrix type="matrix" values="0 0 0 0 0.137255 0 0 0 0 0.137255 0 0 0 0 0.12549 0 0 0 0.3 0"/>
<feBlend mode="normal" in2="BackgroundImageFix" result="effect1_dropShadow_6271_133918"/>
<feBlend mode="normal" in="SourceGraphic" in2="effect1_dropShadow_6271_133918" result="shape"/>
</filter>
<clipPath id="clip0_6271_133918">
<rect width="79.2301" height="13.9167" fill="white" transform="translate(18 17)"/>
</clipPath>
<clipPath id="clip1_6271_133918">
<rect width="87" height="28" fill="white" transform="translate(159 115.917)"/>
</clipPath>
</defs>
</svg>
